<?xml version="1.0" ?>

<!-- Uploaded to: SVG Repo, www.svgrepo.com, Generator: SVG Repo Mixer Tools -->
<svg width="800px" height="800px" viewBox="0 0 32 32" id="svg5" version="1.1" xmlns="http://www.w3.org/2000/svg" xmlns:svg="http://www.w3.org/2000/svg">

<defs id="defs2"/>

<g id="layer1" transform="translate(-396,-196)">

<path d="m 399,198.00586 c -0.55228,0 -1,0.44772 -1,1 0,0.55228 0.44772,1 1,1 h 1.18945 l 3.83203,18.20703 c 0.0979,0.46231 0.50597,0.79302 0.97852,0.79297 h 18.29883 c 0.55228,0 1,-0.44772 1,-1 0,-0.55228 -0.44772,-1 -1,-1 h -17.48828 l -0.42188,-2 h 16.91016 c 0.45916,1.8e-4 0.85946,-0.31232 0.9707,-0.75781 l 2.73047,-11 c 0.15748,-0.63123 -0.32012,-1.24241 -0.9707,-1.24219 H 418 v -3 c -6e-5,-0.55226 -0.44774,-0.99994 -1,-1 h -4 c -0.55226,6e-5 -0.99994,0.44774 -1,1 v 3 h -0.16016 l -0.87304,-3.25781 c -0.11206,-0.41878 -0.48115,-0.71768 -0.91407,-0.74024 -0.10463,-0.005 -0.20941,0.006 -0.31054,0.0332 l -3.86328,1.03515 c -0.53334,0.14303 -0.84983,0.69122 -0.70703,1.22461 l 0.45703,1.70508 h -2.97657 l -0.67382,-3.20508 C 401.88145,198.3377 401.47315,198.006 401,198.00586 Z m 15,2 h 2 v 2 h -2 z m -4.70703,0.22656 0.47461,1.77344 h -2.07031 L 407.36133,200.75 Z m -6.21875,3.77344 H 423.75 l -2.23242,9 -16.5332,0.004 c -0.61823,-2.86515 -1.2814,-6.02491 -1.91016,-9.00391 z" id="path39527" style="color:#000000;fill:#000000;fill-rule:evenodd;stroke-linecap:round;stroke-linejoin:round;stroke-miterlimit:4.1;-inkscape-stroke:none"/>

<path d="m 409,220.00586 c -1.64501,0 -3,1.35499 -3,3 0,1.64501 1.35499,3 3,3 1.64501,0 3,-1.35499 3,-3 0,-1.64501 -1.35499,-3 -3,-3 z m 0,2 c 0.56413,0 1,0.43587 1,1 0,0.56413 -0.43587,1 -1,1 -0.56413,0 -1,-0.43587 -1,-1 0,-0.56413 0.43587,-1 1,-1 z" id="circle39529" style="color:#000000;fill:#000000;fill-rule:evenodd;stroke-linecap:round;stroke-linejoin:round;stroke-miterlimit:4.1;-inkscape-stroke:none"/>

<path d="m 419,220.00586 c -1.64501,0 -3,1.35499 -3,3 0,1.64501 1.35499,3 3,3 1.64501,0 3,-1.35499 3,-3 0,-1.64501 -1.35499,-3 -3,-3 z m 0,2 c 0.56413,0 1,0.43587 1,1 0,0.56413 -0.43587,1 -1,1 -0.56413,0 -1,-0.43587 -1,-1 0,-0.56413 0.43587,-1 1,-1 z" id="circle39531" style="color:#000000;fill:#000000;fill-rule:evenodd;stroke-linecap:round;stroke-linejoin:round;stroke-miterlimit:4.1;-inkscape-stroke:none"/>

</g>

</svg>